<svg width="17" height="16" viewBox="0 0 17 16" fill="none" xmlns="http://www.w3.org/2000/svg">
<g id="Group 36585">
<path id="Vector" d="M16 8C16 12.1422 12.6421 15.5 8.5 15.5C4.3579 15.5 1 12.1421 1 8C1 3.8579 4.3579 0.5 8.5 0.5C12.6421 0.5 16 3.8579 16 8Z" stroke="#201F1D" stroke-opacity="0.5"/>
<path id="Vector_2" fill-rule="evenodd" clip-rule="evenodd" d="M10.206 11.7322L10.0771 12.2595C9.69041 12.4119 9.38172 12.528 9.15132 12.6081C8.92078 12.6882 8.65332 12.7283 8.34855 12.7283C7.87989 12.7283 7.51561 12.614 7.25585 12.3854C6.99609 12.157 6.86614 11.8669 6.86614 11.5153C6.86614 11.3787 6.87592 11.239 6.89548 11.0964C6.91505 10.9539 6.94624 10.7928 6.98917 10.613L7.46969 8.90215C7.51262 8.73815 7.54876 8.58277 7.57811 8.43636C7.60735 8.28985 7.62208 8.15611 7.62208 8.03492C7.62208 7.81624 7.57708 7.66385 7.48731 7.57799C7.39742 7.49202 7.22558 7.44909 6.97169 7.44909C6.8467 7.44909 6.71872 7.46854 6.58786 7.50767C6.457 7.54669 6.34467 7.58375 6.25098 7.61897L6.37988 7.09162C6.69626 6.96272 6.99897 6.85235 7.28807 6.76063C7.57707 6.66878 7.85053 6.62286 8.10834 6.62286C8.57319 6.62286 8.93159 6.73519 9.18353 6.95987C9.43547 7.18441 9.56149 7.4764 9.56149 7.83582C9.56149 7.90994 9.55263 8.0408 9.53502 8.22828C9.51753 8.41588 9.4853 8.58771 9.43835 8.7439L8.95794 10.449C8.91892 10.5857 8.88371 10.7419 8.85252 10.9178C8.82121 11.0935 8.80556 11.2263 8.80556 11.3162C8.80556 11.5427 8.85631 11.6971 8.95794 11.779C9.05945 11.8611 9.23531 11.902 9.48528 11.902C9.60245 11.902 9.73526 11.8815 9.88372 11.8406C10.0321 11.7996 10.1396 11.7635 10.206 11.7321L10.206 11.7322ZM10.3291 4.57808C10.3291 4.8749 10.2167 5.12787 9.99206 5.33689C9.76751 5.5459 9.49704 5.65029 9.18054 5.65029C8.86416 5.65029 8.59276 5.5459 8.36613 5.33689C8.13963 5.12788 8.02627 4.8749 8.02627 4.57808C8.02627 4.28126 8.13963 4.02737 8.36613 3.81638C8.59275 3.60542 8.86413 3.5 9.18054 3.5C9.49704 3.5 9.76751 3.60542 9.99206 3.81638C10.2167 4.02735 10.3291 4.28123 10.3291 4.57808Z" fill="#201F1D" fill-opacity="0.5"/>
</g>
</svg>
